<svg  id="arrow"  width="100%" height="100%"   viewBox="0 0 22 13" fill="none" xmlns="http://www.w3.org/2000/svg">
<path id="Line 45" opacity="0.9" d="M1.25806 5.74516C0.841171 5.74516 0.503218 6.08311 0.503218 6.5C0.503218 6.91689 0.841171 7.25484 1.25806 7.25484L1.25806 5.74516ZM21.5337 7.03375C21.8285 6.73897 21.8285 6.26103 21.5337 5.96625L16.73 1.16249C16.4352 0.867702 15.9573 0.867702 15.6625 1.16248C15.3677 1.45727 15.3677 1.93521 15.6625 2.22999L19.9325 6.5L15.6625 10.77C15.3677 11.0648 15.3677 11.5427 15.6625 11.8375C15.9573 12.1323 16.4352 12.1323 16.73 11.8375L21.5337 7.03375ZM1.25806 7.25484L21 7.25484L21 5.74516L1.25806 5.74516L1.25806 7.25484Z" fill="currentColor"/>
</svg>
